<svg aria-hidden="true" style="width:0;height:0;position:absolute;overflow:hidden" xmlns="http://www.w3.org/2000/svg"><defs><symbol id="icon-btn" viewBox="0 0 32 32"><path fill="none" stroke-linejoin="round" stroke-linecap="round" stroke-width="5.333" d="M10.667 5.333 23.863 16 10.667 26.667"/></symbol><symbol id="icon-close" viewBox="0 0 32 32"><path d="m17.254 16 7.369-7.369a.886.886 0 0 0-.047-1.207.89.89 0 0 0-1.207-.047L16 14.746 8.631 7.368A.892.892 0 0 0 7.369 8.63l7.378 7.369-7.378 7.369a.891.891 0 0 0-.05 1.304.906.906 0 0 0 .663.26.88.88 0 0 0 .641-.31l7.378-7.369 7.369 7.369a.886.886 0 0 0 1.207-.047.893.893 0 0 0 .047-1.207l-7.369-7.369z"/></symbol></defs></svg>